<svg xmlns="http://www.w3.org/2000/svg" version="1.1" xmlns:xlink="http://www.w3.org/1999/xlink" width="1000" height="1000"><g clip-path="url(#SvgjsClipPath1156)"><rect width="1000" height="1000" fill="#ffffff"></rect><g transform="matrix(0.9765625,0,0,0.9765625,0,0)"><svg xmlns="http://www.w3.org/2000/svg" xmlns:xlink="http://www.w3.org/1999/xlink" width="1024" height="1024" viewBox="0 0 1024 1024"><path fill="#0C4753" d="M512.344 288.178C528.664 286.279 547.678 308.542 558.4 318.378C564.117 323.623 570.301 328.474 576.868 332.644C583.605 336.921 591.489 339.733 599.24 341.48C605.304 342.816 610.6 343.154 616.729 343.472C631.268 344.227 654.909 340.971 666.906 350.33C683.996 363.66 679.636 385.361 680.725 404.248C681.531 418.713 683.539 431.793 691.094 444.399C698.799 457.254 708.42 468.41 718.23 479.672C724.251 486.584 733.789 496.809 734.466 506.425C736.329 532.894 710.079 549.474 696.48 568.822C689.965 578.062 685.393 587.077 683.093 598.208C681.035 607.83 680.799 619.633 680.607 629.448C680.315 644.409 681.166 655.21 671.197 667.518C660.789 680.369 647.837 679.43 632.929 679.535C626.463 679.548 620.002 679.868 613.566 680.493C588.228 683.048 571.473 693.095 552.71 709.517C540.171 720.492 530.707 734.227 512.98 735.817C490.792 734.277 475.643 712.155 459.53 699.04C451.223 692.279 444.27 687.59 434.055 684.127C427.704 681.944 421.106 680.563 414.412 680.016C397.294 678.787 371.566 682.901 357.333 671.971C344.031 661.622 345.006 644.559 344.798 629.452C344.472 617.142 344.509 604.22 340.654 592.398C333.907 571.706 317.288 556.367 303.702 540.065C297.293 532.374 290.429 524.696 289.454 514.311C287.846 497.162 301.426 485.112 312.02 473.708C317.175 468.159 322.345 462.349 326.818 456.245C334.036 446.516 339.105 435.364 341.691 423.529C343.409 415.655 343.919 408.045 344.285 400C344.954 385.304 342.971 367.295 353.127 355.241C366.76 339.061 394.956 345.071 413.699 343.252C423.485 342.303 434.912 339.737 443.725 335.166C457.491 328.025 469.43 315.571 481.071 305.372C486.814 300.34 492.201 295.076 499.12 291.591C503.862 289.203 507.177 288.638 512.344 288.178ZM523.249 677.036C614.607 671.227 683.96 592.46 678.155 501.101C672.351 409.743 593.586 340.387 502.228 346.188C410.864 351.989 341.502 430.759 347.308 522.123C353.113 613.487 431.886 682.845 523.249 677.036Z"></path><path fill="#0C4753" d="M492.962 367.21L493.623 367.241C493.077 368.137 487.668 369.903 486.143 370.551C476.349 374.715 466.681 379.56 457.879 385.552C430.818 404.043 412.203 432.52 406.125 464.727C399.779 498.257 405.861 532.328 425.312 560.623C444.5 588.706 474.231 607.835 507.742 613.658C540.229 619.528 574.716 611.208 601.666 592.404C630.502 572.202 649.998 541.249 655.763 506.516C658.528 536.528 654.629 553.074 642.663 580.182C638.016 589.857 630.644 600.794 623.616 609.067C570.055 672.118 481.261 681.303 417.136 627.475C385.762 601.247 366.249 563.507 362.985 522.744C359.881 484.991 371.853 447.544 396.282 418.594C421.37 388.893 454.044 370.627 492.962 367.21Z"></path><path fill="#0C4753" d="M522.646 393.245C546.026 393.84 567.673 396.847 586.403 412.133C616.082 436.355 614.776 483.879 591.497 511.984C578.064 528.2 559.37 534.498 538.877 535.581C532.313 535.951 525.506 535.805 519.006 536.363L519.034 492.501C530.167 492.735 548.553 494.104 556.698 485.659C569.708 472.17 565.76 439.253 544.11 436.822C536.713 435.991 530.867 436.02 523.582 436.029C517.736 436.423 511.87 436.427 506.024 436.04C506.4 440.092 506.131 446.533 506.107 450.786L506.017 477.662L506.047 567.367C506.071 575.658 505.529 596.244 506.445 603.705C494.744 597.65 473.064 586.306 462.028 579.299C461.552 561.469 461.953 541.713 461.967 523.705L461.906 394.104C482.151 393.701 502.398 393.415 522.646 393.245Z"></path><defs><linearGradient id="gradient_0" gradientUnits="userSpaceOnUse" x1="490.39066" y1="361.78253" x2="489.99832" y2="363.78381"><stop offset="0" stop-color="#020001" stop-opacity="0"></stop><stop offset="1" stop-color="#000001" stop-opacity="0.031372551"></stop></linearGradient><clipPath id="SvgjsClipPath1156"><rect width="1000" height="1000" x="0" y="0" rx="300" ry="300"></rect></clipPath></defs><path fill="url(#gradient_0)" d="M486.546 361.342C489.254 361.555 491.785 362.208 494.384 362.93L494.453 363.44L492.911 363.371C490.164 362.818 487.151 363.739 486.011 363.091L486.546 361.342Z"></path></svg></g></g></svg>